<?xml version="1.0" standalone="no"?>
<!DOCTYPE svg PUBLIC "-//W3C//DTD SVG 20010904//EN"
 "http://www.w3.org/TR/2001/REC-SVG-20010904/DTD/svg10.dtd">
<svg version="1.0" xmlns="http://www.w3.org/2000/svg"
 width="48.000000pt" height="48.000000pt" viewBox="0 0 48.000000 48.000000"
 preserveAspectRatio="xMidYMid meet">

<g transform="translate(0.000000,48.000000) scale(0.100000,-0.100000)"
fill="#000000" stroke="none">
<path d="M185 446 c-45 -45 -45 -107 0 -152 62 -62 163 11 141 102 -18 69 -95
96 -141 50z m100 -21 c33 -32 33 -78 0 -110 -13 -14 -34 -25 -45 -25 -32 0
-70 44 -70 80 0 36 38 80 70 80 12 0 32 -11 45 -25z"/>
<path d="M177 240 c-47 -15 -97 -59 -120 -106 -32 -67 -21 -78 87 -82 52 -2
86 1 86 7 0 6 -36 11 -82 13 -81 3 -83 4 -80 27 4 37 50 91 96 112 52 23 94
24 148 2 l43 -18 -45 -5 -45 -5 0 -90 0 -90 105 0 105 0 0 90 0 90 -44 3 c-25
2 -59 14 -81 28 -42 28 -126 40 -173 24z m283 -145 l0 -75 -90 0 -90 0 0 75 0
75 90 0 90 0 0 -75z"/>
<path d="M330 130 c0 -5 18 -10 40 -10 22 0 40 5 40 10 0 6 -18 10 -40 10 -22
0 -40 -4 -40 -10z"/>
</g>
</svg>
